# xmcd
#
# Track frame offsets: 
#        150
#        16222
#        33880
#        50102
#        63887
#        82177
#        98400
#        117617
#
# Disc length: 1838 seconds
#
# Revision: 1
# Processed by: cddbd v1.5.2PL0 Copyright (c) Steve Scherf et al.
# Submitted via: ExactAudioCopy v1.3
#
DISCID=61072c08
DTITLE=Various Artist - 超魔神英雄伝ワタル 【シングルコレクション】 DISC1
DYEAR=1999
DGENRE=Anime
TTITLE0=a.chi-a.chi - エール
TTITLE1=a.chi-a.chi - DON'T MIND PARTY
TTITLE2=三重野瞳 - Future
TTITLE3=宮村優子 - くるみパン
TTITLE4=三重野瞳 - ひとつのハートで
TTITLE5=三重野瞳 - BOYS BE AMBITIOUS
TTITLE6=三重野瞳 - POWER OF DREAM
TTITLE7=三重野瞳 - がんばって
EXTD=YEAR: 1999
EXTT0=
EXTT1=
EXTT2=
EXTT3=
EXTT4=
EXTT5=
EXTT6=
EXTT7=
PLAYORDER=
